<svg width="38" height="39" viewBox="0 0 38 39" fill="none" xmlns="http://www.w3.org/2000/svg">
<path fill-rule="evenodd" clip-rule="evenodd" d="M0.105469 19.5065C0.105469 9.19173 8.46724 0.829956 18.782 0.829956C29.0968 0.829956 37.4585 9.19173 37.4585 19.5065C37.4585 29.8213 29.0968 38.183 18.782 38.183C8.46724 38.183 0.105469 29.8213 0.105469 19.5065ZM21.8226 11.8504C22.5357 10.9299 23.0762 9.62879 22.8807 8.30071C21.7152 8.3817 20.3529 9.12738 19.558 10.0993C18.8334 10.98 18.2379 12.2901 18.4705 13.5616C19.7446 13.6014 21.0596 12.8378 21.8226 11.8504ZM27.4877 15.6365C23.8174 17.6601 24.4117 22.9326 28.1203 24.343C27.6104 25.4795 27.365 25.9873 26.7082 26.994C25.7919 28.3992 24.4999 30.149 22.8973 30.1618C22.2386 30.169 21.8062 29.9695 21.34 29.7545C20.7997 29.5053 20.2139 29.2351 19.1772 29.2413C18.1466 29.2468 17.5514 29.5137 17.0037 29.7594C16.5253 29.974 16.0832 30.1723 15.4187 30.1657C13.8174 30.1515 12.5932 28.5727 11.6769 27.1675C9.1133 23.2412 8.84365 18.6321 10.4245 16.1804C11.5491 14.4396 13.3229 13.4214 14.9893 13.4214C15.8772 13.4214 16.5927 13.6779 17.2745 13.9224C17.895 14.1448 18.4876 14.3573 19.1567 14.3573C19.776 14.3573 20.2851 14.1634 20.8405 13.9519C21.507 13.698 22.2401 13.4188 23.3101 13.4188C24.7951 13.4188 26.3682 14.2326 27.4877 15.6365Z" fill="black"/>
</svg>
