<svg width="38" height="39" viewBox="0 0 38 39" fill="none" xmlns="http://www.w3.org/2000/svg">
<path fill-rule="evenodd" clip-rule="evenodd" d="M19.257 0.829956C8.94222 0.829956 0.580444 9.19173 0.580444 19.5065C0.580444 29.8213 8.94222 38.183 19.257 38.183C29.5718 38.183 37.9335 29.8213 37.9335 19.5065C37.9335 9.19173 29.5718 0.829956 19.257 0.829956ZM15.1507 9.60588C16.2132 9.55753 16.5527 9.5457 19.2579 9.5457H19.2548C21.9609 9.5457 22.2991 9.55753 23.3616 9.60588C24.422 9.65444 25.1463 9.82232 25.7813 10.0686C26.437 10.3229 26.9911 10.6632 27.5452 11.2173C28.0993 11.7709 28.4396 12.3267 28.6949 12.9818C28.9397 13.6151 29.1078 14.339 29.1576 15.3994C29.2054 16.4619 29.2178 16.8014 29.2178 19.5066C29.2178 22.2118 29.2054 22.5505 29.1576 23.613C29.1078 24.673 28.9397 25.3971 28.6949 26.0306C28.4396 26.6855 28.0993 27.2413 27.5452 27.7949C26.9917 28.349 26.4368 28.6902 25.7819 28.9446C25.1481 29.1909 24.4235 29.3588 23.3631 29.4074C22.3006 29.4557 21.9621 29.4675 19.2567 29.4675C16.5517 29.4675 16.2124 29.4557 15.1499 29.4074C14.0897 29.3588 13.3656 29.1909 12.7319 28.9446C12.0771 28.6902 11.5214 28.349 10.9679 27.7949C10.4141 27.2413 10.0737 26.6855 9.81911 26.0304C9.573 25.3971 9.40511 24.6732 9.35635 23.6128C9.3082 22.5503 9.29616 22.2118 9.29616 19.5066C9.29616 16.8014 9.30862 16.4617 9.35614 15.3992C9.40387 14.3392 9.57196 13.6152 9.81891 12.9816C10.0742 12.3267 10.4145 11.7709 10.9686 11.2173C11.5222 10.6634 12.078 10.3231 12.7331 10.0686C13.3664 9.82232 14.0903 9.65444 15.1507 9.60588Z" fill="black"/>
<path fill-rule="evenodd" clip-rule="evenodd" d="M18.3643 11.3407C18.5379 11.3405 18.7245 11.3406 18.9259 11.3406L19.2579 11.3407C21.9175 11.3407 22.2327 11.3503 23.283 11.398C24.2542 11.4424 24.7813 11.6047 25.1324 11.7411C25.5972 11.9216 25.9286 12.1374 26.2771 12.486C26.6257 12.8347 26.8415 13.1667 27.0225 13.6316C27.1588 13.9823 27.3213 14.5094 27.3655 15.4805C27.4132 16.5306 27.4236 16.846 27.4236 19.5043C27.4236 22.1627 27.4132 22.4781 27.3655 23.5281C27.3211 24.4993 27.1588 25.0264 27.0225 25.3771C26.8419 25.842 26.6257 26.173 26.2771 26.5214C25.9284 26.87 25.5974 27.0859 25.1324 27.2664C24.7817 27.4034 24.2542 27.5652 23.283 27.6096C22.2329 27.6574 21.9175 27.6677 19.2579 27.6677C16.5981 27.6677 16.2829 27.6574 15.2329 27.6096C14.2617 27.5648 13.7346 27.4025 13.3833 27.2662C12.9184 27.0856 12.5864 26.8698 12.2378 26.5212C11.8891 26.1726 11.6733 25.8414 11.4923 25.3763C11.356 25.0256 11.1935 24.4985 11.1493 23.5273C11.1016 22.4773 11.092 22.1618 11.092 19.5019C11.092 16.8419 11.1016 16.5281 11.1493 15.4781C11.1937 14.5069 11.356 13.9798 11.4923 13.6286C11.6729 13.1638 11.8891 12.8318 12.2378 12.4831C12.5864 12.1345 12.9184 11.9187 13.3833 11.7377C13.7344 11.6008 14.2617 11.4389 15.2329 11.3943C16.1518 11.3528 16.5079 11.3403 18.3643 11.3383V11.3407ZM24.575 12.9946C23.9151 12.9946 23.3797 13.5294 23.3797 14.1895C23.3797 14.8494 23.9151 15.3848 24.575 15.3848C25.2349 15.3848 25.7703 14.8494 25.7703 14.1895C25.7703 13.5296 25.2349 12.9942 24.575 12.9942V12.9946ZM14.1426 19.5067C14.1426 16.6818 16.4328 14.3914 19.2577 14.3913C22.0827 14.3913 24.3724 16.6817 24.3724 19.5067C24.3724 22.3316 22.0829 24.621 19.2579 24.621C16.4329 24.621 14.1426 22.3316 14.1426 19.5067Z" fill="black"/>
<path d="M19.2579 16.1863C21.0916 16.1863 22.5782 17.6727 22.5782 19.5066C22.5782 21.3402 21.0916 22.8269 19.2579 22.8269C17.4241 22.8269 15.9376 21.3402 15.9376 19.5066C15.9376 17.6727 17.4241 16.1863 19.2579 16.1863V16.1863Z" fill="black"/>
</svg>
