<svg width="39" height="39" viewBox="0 0 39 39" fill="none" xmlns="http://www.w3.org/2000/svg">
<path fill-rule="evenodd" clip-rule="evenodd" d="M19.6175 0.829956C9.30269 0.829956 0.940918 9.19173 0.940918 19.5065C0.940918 29.8213 9.30269 38.183 19.6175 38.183C29.9322 38.183 38.294 29.8213 38.294 19.5065C38.294 9.19173 29.9322 0.829956 19.6175 0.829956ZM19.0973 16.6567L19.0581 16.0105C18.9405 14.3355 19.9726 12.8056 21.6055 12.2121C22.2065 12.0011 23.2255 11.9747 23.8917 12.1593C24.153 12.2385 24.6494 12.5022 25.0022 12.7396L25.6423 13.1749L26.3477 12.9507C26.7396 12.832 27.2622 12.6341 27.4973 12.5022C27.7194 12.3835 27.9154 12.3176 27.9154 12.3572C27.9154 12.5814 27.432 13.3463 27.027 13.7684C26.4784 14.3619 26.6351 14.4146 27.7456 14.019C28.4118 13.7948 28.4249 13.7947 28.2942 14.0453C28.2159 14.1772 27.8109 14.6388 27.3798 15.0609C26.6482 15.7863 26.609 15.8654 26.609 16.4721C26.609 17.4085 26.1648 19.3604 25.7207 20.4287C24.8976 22.4334 23.134 24.504 21.3704 25.546C18.8883 27.0099 15.5831 27.3792 12.8005 26.5219C11.873 26.2318 10.2792 25.4932 10.2792 25.3613C10.2792 25.3217 10.7626 25.269 11.3504 25.2558C12.5784 25.2294 13.8064 24.8865 14.8515 24.2798L15.557 23.8578L14.747 23.5808C13.5974 23.1852 12.5654 22.2751 12.3041 21.4179C12.2257 21.1409 12.2518 21.1277 12.9834 21.1277L13.7411 21.1145L13.101 20.8112C12.3433 20.4287 11.6509 19.7825 11.3112 19.123C11.063 18.6482 10.7495 17.448 10.8409 17.3557C10.8671 17.3162 11.1414 17.3953 11.4549 17.5008C12.3563 17.8305 12.4739 17.7514 11.9514 17.1975C10.9716 16.1951 10.6711 14.7048 11.1414 13.2936L11.3635 12.6605L12.2257 13.5178C13.9893 15.2455 16.0665 16.2742 18.4441 16.5776L19.0973 16.6567Z" fill="black"/>
</svg>
